<svg width="400" height="140" viewBox="0 0 400 140" fill="none" xmlns="http://www.w3.org/2000/svg">
<rect width="400" height="140" fill="black"/>
<path d="M146.141 81.0664L147.33 78.1133H157.42L158.609 81.0664H146.141ZM143.844 86.9727L144.992 84.0195H159.717L160.988 86.9727H143.844ZM141.547 92.8789L142.695 89.9258H162.055L163.285 92.8789H141.547ZM117.553 101H114.354L141.219 33.0781H144.418L171.242 101H168.084L142.818 37.0566L117.553 101ZM143.188 44.0703L144.869 47.8438L123.869 101H120.711L143.188 44.0703ZM146.469 51.8633L148.027 55.9238L130.268 101H127.068L146.469 51.8633ZM149.586 59.9844L151.145 64.127L136.584 101H133.426L149.586 59.9844ZM190.314 101H187.115L160.291 33.0781H163.449L190.314 101ZM157.092 33.0781L183.957 101H180.799L153.934 33.0781H157.092ZM150.734 33.0781L177.6 101H174.4L147.576 33.0781H150.734ZM198.641 86.2344H193.596V83.2812H198.641C200.09 83.2812 201.307 82.7344 202.291 81.6406C203.275 80.5469 203.768 79.0977 203.768 77.293V33.0781H206.721V77.293C206.721 79.8906 205.941 82.0371 204.383 83.7324C202.824 85.4004 200.91 86.2344 198.641 86.2344ZM198.641 92.1406H193.596V89.1875H198.641C201.703 89.1875 204.301 88.0254 206.434 85.7012C208.594 83.377 209.674 80.5742 209.674 77.293V33.0781H212.627V77.293C212.627 81.3945 211.26 84.8945 208.525 87.793C205.818 90.6914 202.523 92.1406 198.641 92.1406ZM198.641 98.0469H193.596V95.0938H198.641C203.344 95.0938 207.336 93.3574 210.617 89.8848C213.926 86.4121 215.58 82.2148 215.58 77.293V33.0781H218.533V77.293C218.533 81.0391 217.645 84.5117 215.867 87.7109C214.117 90.8828 211.711 93.3984 208.648 95.2578C205.586 97.1172 202.25 98.0469 198.641 98.0469ZM198.641 103.953H193.596V101H198.641C201.758 101 204.725 100.371 207.541 99.1133C210.357 97.8555 212.777 96.1738 214.801 94.0684C216.852 91.9355 218.479 89.4062 219.682 86.4805C220.885 83.5547 221.486 80.4922 221.486 77.293V33.0781H224.439V77.293C224.439 80.9023 223.756 84.3477 222.389 87.6289C221.049 90.9102 219.217 93.7539 216.893 96.1602C214.596 98.5391 211.848 100.426 208.648 101.82C205.477 103.242 202.141 103.953 198.641 103.953ZM259.426 59.6562H254.463C252.357 59.6562 250.84 59.123 249.91 58.0566C248.98 56.9629 248.516 55.5273 248.516 53.75C248.516 49.8125 251.455 47.8438 257.334 47.8438C262.857 47.8438 267.014 48.6641 269.803 50.3047L267.424 52.1094C265.51 51.2344 262.146 50.7969 257.334 50.7969C254.982 50.7969 253.396 51.0566 252.576 51.5762C251.783 52.0957 251.387 52.8203 251.387 53.75C251.387 54.6797 251.605 55.4043 252.043 55.9238C252.48 56.4434 253.287 56.7031 254.463 56.7031H259.549C263.24 56.7031 266.562 57.332 269.516 58.5898C272.496 59.8477 274.943 61.5703 276.857 63.7578C278.771 65.918 280.234 68.4199 281.246 71.2637C282.258 74.0801 282.764 77.1016 282.764 80.3281C282.764 82.9531 282.395 85.4414 281.656 87.793C280.918 90.1445 279.797 92.3047 278.293 94.2734C276.816 96.2422 275.025 97.9512 272.92 99.4004C270.842 100.822 268.354 101.93 265.455 102.723C262.584 103.543 259.467 103.953 256.104 103.953C250.826 103.953 245.877 103.146 241.256 101.533C236.662 99.9473 232.834 97.7188 229.771 94.8477L232.15 93.084C234.939 95.5996 238.426 97.5547 242.609 98.9492C246.82 100.316 251.318 101 256.104 101C259.85 101 263.227 100.467 266.234 99.4004C269.27 98.3066 271.758 96.8164 273.699 94.9297C275.668 93.043 277.172 90.8555 278.211 88.3672C279.277 85.8789 279.811 83.1992 279.811 80.3281C279.811 76.5273 279.045 73.0957 277.514 70.0332C275.982 66.9434 273.645 64.4414 270.5 62.5273C267.383 60.6133 263.691 59.6562 259.426 59.6562ZM254.463 62.6094H259.139C264.689 62.6094 269.023 64.3047 272.141 67.6953C275.285 71.0859 276.857 75.2969 276.857 80.3281C276.857 85.4414 275.039 89.6797 271.402 93.043C267.766 96.3789 262.666 98.0469 256.104 98.0469C251.729 98.0469 247.641 97.4453 243.84 96.2422C240.039 95.0391 236.881 93.3438 234.365 91.1562L236.662 89.3105C238.904 91.1426 241.721 92.5645 245.111 93.5762C248.529 94.5879 252.193 95.0938 256.104 95.0938C261.873 95.0938 266.275 93.7129 269.311 90.9512C272.373 88.1895 273.904 84.6484 273.904 80.3281C273.904 76.0625 272.619 72.5352 270.049 69.7461C267.506 66.957 263.855 65.5625 259.098 65.5625H254.463C250.471 65.5625 247.477 64.4688 245.48 62.2812C243.484 60.0938 242.486 57.25 242.486 53.75C242.486 50.25 243.717 47.4062 246.178 45.2188C248.666 43.0312 252.385 41.9375 257.334 41.9375C260.807 41.9375 264.033 42.3477 267.014 43.168C269.994 43.9609 272.455 45.1094 274.396 46.6133L272.059 48.418C268.641 46.0664 263.732 44.8906 257.334 44.8906C253.205 44.8906 250.184 45.7109 248.27 47.3516C246.383 48.9648 245.439 51.0977 245.439 53.75C245.439 56.4297 246.137 58.5762 247.531 60.1895C248.953 61.8027 251.264 62.6094 254.463 62.6094ZM254.463 68.5156H258.975C262.967 68.5156 265.961 69.623 267.957 71.8379C269.953 74.0527 270.951 76.8828 270.951 80.3281C270.951 83.8281 269.707 86.6719 267.219 88.8594C264.758 91.0469 261.053 92.1406 256.104 92.1406C252.631 92.1406 249.391 91.7441 246.383 90.9512C243.402 90.1309 240.941 88.9688 239 87.4648L241.338 85.6602C244.756 88.0117 249.678 89.1875 256.104 89.1875C260.232 89.1875 263.24 88.3809 265.127 86.7676C267.041 85.127 267.998 82.9805 267.998 80.3281C267.998 77.6758 267.287 75.543 265.865 73.9297C264.443 72.2891 262.133 71.4688 258.934 71.4688H254.463C248.857 71.4688 244.469 69.8008 241.297 66.4648C238.152 63.1016 236.58 58.8633 236.58 53.75C236.58 48.6367 238.398 44.4121 242.035 41.0762C245.672 37.7129 250.771 36.0312 257.334 36.0312C261.709 36.0312 265.783 36.6328 269.557 37.8359C273.357 39.0391 276.516 40.7344 279.031 42.9219L276.734 44.7676C274.492 42.9355 271.676 41.5137 268.285 40.502C264.895 39.4902 261.244 38.9844 257.334 38.9844C251.564 38.9844 247.148 40.3652 244.086 43.127C241.051 45.8887 239.533 49.4297 239.533 53.75C239.533 58.043 240.818 61.584 243.389 64.373C245.959 67.1348 249.65 68.5156 254.463 68.5156ZM254.463 74.4219H258.975C261.08 74.4219 262.598 74.9688 263.527 76.0625C264.457 77.1562 264.922 78.5781 264.922 80.3281C264.922 84.2656 261.982 86.2344 256.104 86.2344C250.553 86.2344 246.383 85.4141 243.594 83.7734L245.973 81.9688C247.887 82.8438 251.264 83.2812 256.104 83.2812C258.455 83.2812 260.027 83.0215 260.82 82.502C261.641 81.9824 262.051 81.2578 262.051 80.3281C262.051 79.4258 261.818 78.7148 261.354 78.1953C260.916 77.6484 260.096 77.375 258.893 77.375H254.463C250.689 77.375 247.271 76.7598 244.209 75.5293C241.174 74.2988 238.672 72.6035 236.703 70.4434C234.762 68.2832 233.271 65.7812 232.232 62.9375C231.193 60.0938 230.674 57.0312 230.674 53.75C230.674 51.125 231.043 48.6367 231.781 46.2852C232.52 43.9336 233.627 41.7734 235.104 39.8047C236.607 37.8359 238.398 36.1406 240.477 34.7188C242.582 33.2695 245.07 32.1484 247.941 31.3555C250.84 30.5352 253.971 30.125 257.334 30.125C262.611 30.125 267.547 30.9316 272.141 32.5449C276.734 34.1309 280.562 36.3594 283.625 39.2305L281.246 40.9941C278.457 38.4785 274.971 36.5371 270.787 35.1699C266.604 33.7754 262.119 33.0781 257.334 33.0781C253.588 33.0781 250.197 33.625 247.162 34.7188C244.154 35.7852 241.666 37.2617 239.697 39.1484C237.756 41.0352 236.252 43.2227 235.186 45.7109C234.146 48.1992 233.627 50.8789 233.627 53.75C233.627 57.6055 234.406 61.0781 235.965 64.168C237.523 67.2578 239.902 69.7461 243.102 71.6328C246.301 73.4922 250.088 74.4219 254.463 74.4219Z" fill="white"/>
<rect x="110" y="111" width="180" height="1" fill="white"/>
</svg>
